<?xml version="1.0" encoding="UTF-8" standalone="no"?>
<!DOCTYPE svg PUBLIC "-//W3C//DTD SVG 1.1//EN" "http://www.w3.org/Graphics/SVG/1.1/DTD/svg11.dtd">
<svg width="100%" height="100%" viewBox="0 0 1444 504" version="1.1" xmlns="http://www.w3.org/2000/svg" xmlns:xlink="http://www.w3.org/1999/xlink" xml:space="preserve" xmlns:serif="http://www.serif.com/" style="fill-rule:evenodd;clip-rule:evenodd;stroke-linejoin:round;stroke-miterlimit:2;">
    <g transform="matrix(1,0,0,1,-231.191,-269.194)">
        <g transform="matrix(1,0,0,1,-1108.92,-456.296)">
            <text x="1335.71px" y="1223.05px" style="font-family:'Georgia', serif;font-size:600px;fill:none;">T</text>
            <g transform="matrix(500,0,0,500,2802.12,1223.05)">
            </g>
            <text x="1706.91px" y="1223.05px" style="font-family:'Georgia', serif;font-size:500px;fill:rgb(138,106,58);">rellis</text>
        </g>
        <g transform="matrix(1,0,0,1,-551.599,-2.95211)">
            <g transform="matrix(9.18868,0,0,31.2978,-10185.5,-14278.1)">
                <path d="M1208.53,468.242L1208.15,468.242C1207.49,468.242 1206.67,468.247 1205.69,468.256C1204.72,468.266 1203.78,468.286 1202.89,468.317C1202.19,468.342 1201.46,468.465 1200.7,468.687C1199.95,468.908 1199.25,469.16 1198.62,469.44C1197.98,469.721 1197.41,470.019 1196.93,470.334C1196.44,470.65 1196.1,470.91 1195.91,471.116L1193.67,471.116L1193.67,467.512L1207.81,467.512C1207.94,467.762 1208.19,468.008 1208.53,468.242ZM1214.91,467.512L1216.49,467.512C1216.36,467.643 1216.24,467.771 1216.11,467.896C1215.75,467.758 1215.35,467.629 1214.91,467.512ZM1221.5,467.512L1233.08,467.512L1233.08,471.116L1230.88,471.116C1230.69,470.891 1230.35,470.625 1229.85,470.316C1229.35,470.007 1228.79,469.715 1228.17,469.44C1227.53,469.153 1226.84,468.902 1226.08,468.687C1225.33,468.472 1224.6,468.348 1223.9,468.317C1223.24,468.292 1222.41,468.273 1221.41,468.261C1220.99,468.256 1220.57,468.251 1220.17,468.248C1220.36,468.071 1220.53,467.89 1220.71,467.703C1220.99,467.645 1221.26,467.581 1221.5,467.512ZM1216.79,470.385L1216.79,470.704C1216.58,470.719 1216.37,470.736 1216.16,470.755C1216.36,470.632 1216.57,470.509 1216.79,470.385ZM1216.79,473.218L1216.79,476.008C1216.64,476.034 1216.5,476.062 1216.37,476.091C1215.61,476.249 1214.94,476.451 1214.37,476.694C1213.67,475.96 1212.92,475.173 1212.81,474.447C1212.77,474.157 1212.83,473.856 1212.98,473.546C1214.34,473.473 1215.64,473.369 1216.79,473.218ZM1216.79,478.674L1216.79,478.867C1216.79,479.073 1216.94,479.261 1217.24,479.433C1217.53,479.605 1218.05,479.737 1218.8,479.831C1219.18,479.874 1219.98,479.934 1221.21,480.009C1222.43,480.084 1223.38,480.124 1224.06,480.13L1224.06,480.795L1214.72,480.795C1214.72,480.786 1214.73,480.777 1214.73,480.767C1214.97,480.114 1215.55,479.462 1215.64,478.808C1216.04,478.766 1216.42,478.722 1216.79,478.674ZM1210.52,480.795L1202.7,480.795L1202.7,480.13C1203.29,480.118 1204.2,480.093 1205.42,480.055C1206.64,480.018 1207.49,479.971 1207.96,479.915C1208.66,479.834 1209.17,479.717 1209.5,479.564C1209.83,479.411 1210,479.207 1210,478.951L1210,476.641C1210.61,477.297 1211.23,477.916 1211.38,478.419C1211.61,479.159 1210.79,479.893 1210.51,480.631C1210.49,480.687 1210.49,480.742 1210.52,480.795ZM1210,471.91L1210,468.954C1210.86,469.266 1211.94,469.528 1213.21,469.71C1211.88,470.457 1210.79,471.196 1210,471.91Z" style="fill:rgb(138,106,58);"/>
            </g>
            <g transform="matrix(1,0,0,1,546,-0.133121)">
                <path d="M419.273,699.728C462.863,687.437 494.297,665.766 498.383,622.993C452.013,619.154 428.371,648.745 419.273,699.728ZM468.232,354.108C429.938,315.7 473.051,274.459 488.754,272.28C505.903,291.656 502.996,340.009 468.232,354.108ZM479.192,465.069C479.837,515.17 437.162,527.602 393.035,532.427C404.437,491.419 433.077,462.105 479.192,465.069ZM310.309,495.03C353.563,498.765 382.983,532.256 389.956,584.27C335.034,570.941 309.772,535.119 310.309,495.03ZM379.261,345.703C415.988,346.145 447.632,381.182 447.826,417.817C408.294,414.605 381.935,380.702 379.261,345.703Z" style="fill:rgb(107,124,63);"/>
                <path d="M479.192,465.069C479.837,515.17 437.162,527.602 393.035,532.427C404.437,491.419 433.077,462.105 479.192,465.069ZM457.431,484.745C443.011,488.358 431.723,496.989 423.416,508.777C427.614,507.588 431.647,506.196 435.452,504.546C445.169,500.334 453.052,494.134 457.431,484.745ZM310.309,495.03C353.563,498.765 382.983,532.256 389.956,584.27C335.034,570.941 309.772,535.119 310.309,495.03ZM363.519,554.762L332.537,519.736C337.84,533.614 348.137,545.739 363.519,554.762ZM419.273,699.728C428.371,648.745 452.013,619.154 498.383,622.993C494.297,665.766 462.863,687.437 419.273,699.728ZM446.642,669.836C458.816,663.141 468.466,654.523 474.364,642.97C470.417,644.23 466.818,646.011 463.557,648.33C456.391,653.428 450.9,660.727 446.642,669.836ZM468.232,354.108C429.938,315.7 473.051,274.459 488.754,272.28C505.903,291.656 502.996,340.009 468.232,354.108ZM480.711,298.623C475.31,304.513 470.51,312.493 470.813,321.492C470.9,324.088 471.468,326.718 472.554,329.373C478.254,322.598 480.749,313.487 480.956,304.958C481.007,302.816 480.931,300.686 480.711,298.623ZM379.261,345.703C415.988,346.145 447.632,381.182 447.826,417.817C408.294,414.605 381.935,380.702 379.261,345.703ZM421.09,389.09L407.056,373.737C410.798,379.605 415.516,384.852 421.09,389.09Z" style="fill:rgb(107,124,63);"/>
            </g>
            <g transform="matrix(0.6829,0,0,0.6829,785.1,77.3726)">
                <path d="M239.12,1013.89C238.477,1012.08 238.223,1010.1 238.447,1008.06C242.274,973.237 253.36,938.513 250.19,903.628C245.854,855.92 215.144,785.648 212.454,724.778C209.251,652.299 241.87,565.529 292.333,477.8C306.933,452.421 314.117,424.578 322.834,393.397C324.792,386.392 332.069,382.294 339.074,384.253C346.08,386.211 350.177,393.488 348.219,400.493C338.865,433.95 330.846,463.711 315.181,490.943C267.572,573.709 235.765,655.235 238.787,723.615C241.459,784.081 272.133,853.851 276.44,901.243C279.768,937.867 268.665,974.381 264.647,1010.94C264.534,1011.97 264.305,1012.95 263.975,1013.89L239.12,1013.89Z" style="fill:rgb(107,124,63);"/>
            </g>
        </g>
    </g>
</svg>
